<svg version="1.1" id="Layer_1" xmlns="http://www.w3.org/2000/svg" xmlns:xlink="http://www.w3.org/1999/xlink" x="0px" y="0px"
	 width="100%" viewBox="0 0 1024 544" enable-background="new 0 0 1024 544" xml:space="preserve">
<path fill="#000000" opacity="1.000000" stroke="none" 
	d="
M412.410797,271.089294 
	C417.658051,271.994690 419.329163,276.531403 422.346375,279.478058 
	C424.203369,281.291687 425.849854,282.755890 428.709381,282.709015 
	C447.533295,282.400513 466.359497,282.232758 485.184601,281.990234 
	C485.920471,281.980743 486.652557,281.678284 488.054047,281.361359 
	C485.722076,279.600830 483.697113,280.105194 481.841339,280.070312 
	C465.184906,279.757172 448.524414,280.212494 431.862427,279.618469 
	C427.280975,279.455139 424.167267,277.780304 421.911163,274.263519 
	C418.766815,269.362030 414.553375,267.591492 408.806915,268.285980 
	C403.393494,268.940216 397.819000,267.202301 392.906555,271.834595 
	C390.233032,274.355591 386.183990,273.054718 383.727356,269.772858 
	C381.345917,266.591339 381.904785,263.361206 384.452240,260.690063 
	C387.091370,257.922791 390.952850,257.481079 393.490112,259.914703 
	C396.883209,263.169098 400.559998,263.075500 404.543152,262.996246 
	C406.542328,262.956482 408.576599,263.201111 410.536255,262.914825 
	C418.643890,261.730377 425.212799,263.857513 429.684418,271.137512 
	C430.665680,272.735046 432.174683,273.680237 434.266052,273.672821 
	C449.930298,273.617279 465.594757,273.636475 481.259094,273.599457 
	C481.863617,273.598022 482.467346,273.263092 483.492157,272.958557 
	C481.346283,266.935852 478.077362,261.751312 475.323151,256.336151 
	C471.624664,249.064423 467.805511,241.853790 464.002167,234.635910 
	C463.281708,233.268661 462.667572,232.010468 463.462158,230.420258 
	C468.597260,220.143326 473.681580,209.841019 478.822693,199.567108 
	C479.092529,199.027878 479.728821,198.672028 480.978058,197.488403 
	C505.313660,243.555115 529.427185,289.201477 553.416809,334.613220 
	C552.326721,336.581757 550.850281,336.232849 549.597656,336.238068 
	C539.932312,336.278137 530.265686,336.174225 520.601929,336.303833 
	C517.464050,336.345917 515.735413,334.951630 514.403076,332.295746 
	C510.595490,324.705536 506.563812,317.227386 502.784882,309.623352 
	C501.586670,307.212402 499.989380,306.174469 497.320465,306.204987 
	C489.822388,306.290680 482.321167,306.304504 474.824188,306.173798 
	C472.186401,306.127808 470.434845,307.235107 468.908081,309.195038 
	C466.759613,311.953033 464.427155,314.569214 462.314240,317.352966 
	C459.766785,320.709167 456.928406,323.216858 452.273010,322.362091 
	C450.128174,321.968323 448.619019,323.051361 447.083344,324.613129 
	C443.735748,328.017609 439.385132,328.143768 436.442535,325.290924 
	C433.418823,322.359436 433.175232,318.436615 435.832458,315.466919 
	C438.796112,312.154755 442.645752,311.952057 446.524567,314.903992 
	C451.518616,318.704681 454.982086,318.815155 458.206970,313.766052 
	C464.848267,303.368011 473.765198,299.195312 485.945831,300.942657 
	C489.503937,301.453064 493.427948,301.691193 497.141754,300.192688 
	C496.181824,297.571777 494.244904,298.262726 492.766479,298.250275 
	C483.601562,298.173187 474.433502,298.322723 465.271210,298.148865 
	C462.172791,298.090057 460.249756,299.372375 458.760834,301.828918 
	C456.668335,305.281281 453.708466,306.532990 449.573730,306.466675 
	C441.588989,306.338562 433.595276,306.923981 425.604187,306.958740 
	C422.638275,306.971649 421.114014,308.262939 419.840271,310.739441 
	C416.107635,317.996948 412.165253,325.146271 408.356415,332.365112 
	C407.302429,334.362610 406.187622,336.162384 403.594086,336.159515 
	C393.096924,336.147797 382.599670,336.141907 372.102722,336.087891 
	C371.505035,336.084839 370.909424,335.672394 369.879395,335.289276 
	C371.673248,328.480377 375.760529,322.943817 378.753052,316.940277 
	C383.134613,308.149994 387.963226,299.582611 392.598083,290.918488 
	C394.565704,287.240356 397.042297,286.715637 400.158783,289.340027 
	C400.539124,289.660339 400.967407,289.994659 401.191803,290.418640 
	C406.205505,299.891418 414.635925,301.136230 424.128876,300.159973 
	C427.262665,299.837738 430.469696,299.908783 433.619751,300.131805 
	C439.571472,300.553131 444.880249,299.931641 448.047852,293.867279 
	C449.084900,291.881866 451.293365,291.804718 453.361694,291.805542 
	C470.859283,291.812317 488.356873,291.813660 505.854370,291.767609 
	C508.159332,291.761536 509.858429,292.474030 511.544861,294.193909 
	C514.164551,296.865662 518.662109,296.571564 520.898743,293.993835 
	C523.428284,291.078613 522.555603,288.328674 520.051392,286.109222 
	C517.084595,283.479736 513.892151,283.485291 511.421844,286.842316 
	C509.613464,289.299805 507.201416,289.140594 504.703094,289.139801 
	C487.540283,289.134308 470.376465,289.228424 453.215454,289.051025 
	C449.515137,289.012756 446.667358,289.811310 444.840027,293.119476 
	C442.912567,296.608856 439.972687,297.603973 436.090027,297.461945 
	C429.433380,297.218506 422.752777,297.220123 416.097992,297.497498 
	C412.365967,297.653046 409.302094,296.665436 407.660645,293.430389 
	C402.244507,282.756287 392.712708,284.512146 383.510345,285.053802 
	C381.613953,285.165436 380.704437,286.597046 379.492004,287.728455 
	C376.185730,290.813751 372.394470,290.744843 369.274506,287.687347 
	C366.328735,284.800568 366.151001,280.850189 368.831299,277.838867 
	C371.559814,274.773315 375.726410,274.412262 379.090240,277.262604 
	C384.863129,282.154205 391.461273,279.140503 397.708527,279.379120 
	C398.263550,279.400330 399.187592,278.399109 399.388580,277.711517 
	C401.319061,271.106628 406.286346,270.416992 412.410797,271.089294 
z"/>
<path fill="#000000" opacity="1.000000" stroke="none" 
	d="
M478.537720,191.037811 
	C478.408356,195.657608 475.773285,199.059601 473.961884,202.713821 
	C463.475037,223.869003 452.769592,244.916473 442.037231,265.948914 
	C438.824036,272.245941 434.594727,272.884735 430.252502,267.322968 
	C426.129211,262.041626 421.563446,258.922272 414.633453,260.179596 
	C413.241669,260.432098 411.630676,260.482147 410.328674,259.375519 
	C409.450043,257.576874 410.640320,256.170349 411.372070,254.762680 
	C422.035461,234.249420 432.747711,213.761581 443.421753,193.253860 
	C444.226166,191.708328 445.116241,190.172409 447.001251,190.179489 
	C457.434296,190.218643 467.891968,189.004318 478.537720,191.037811 
z"/>
<path fill="#000000" opacity="1.000000" stroke="none" 
	d="
M387.348022,428.941711 
	C387.345703,430.431763 387.223053,431.447723 387.361481,432.426819 
	C388.005859,436.983551 385.741760,438.063446 381.591766,438.092255 
	C377.152435,438.123016 375.873596,436.351807 375.913147,432.117493 
	C376.068573,415.469421 375.901825,398.818512 375.984802,382.169342 
	C375.997070,379.704193 374.667236,376.104584 378.001312,375.183929 
	C381.788940,374.138031 385.783630,374.072510 388.757050,378.077118 
	C394.312134,385.558777 400.190704,392.800751 405.956329,400.125427 
	C409.535706,404.672668 413.154938,409.188507 417.987823,413.505005 
	C417.987823,410.781219 417.981506,408.057434 417.989044,405.333679 
	C418.012909,396.676178 418.117218,388.018005 418.041016,379.361420 
	C417.994446,374.070892 421.671936,374.926239 424.964935,374.750031 
	C428.420715,374.565125 430.228516,375.621979 430.211670,379.470490 
	C430.133087,397.451813 430.218140,415.433807 430.227509,433.415558 
	C430.228455,435.248627 430.376282,437.419617 427.922516,437.745148 
	C424.474182,438.202545 421.115814,438.576843 418.490967,435.066864 
	C411.114502,425.202881 403.503754,415.513550 395.945099,405.786682 
	C393.445465,402.570007 390.823242,399.448639 387.347961,395.162506 
	C387.347961,407.249054 387.347961,417.849854 387.348022,428.941711 
z"/>
<path fill="#000000" opacity="1.000000" stroke="none" 
	d="
M445.621429,397.999939 
	C445.637787,391.336121 445.661865,385.172302 445.664978,379.008484 
	C445.666046,376.822021 446.065155,374.834564 448.784637,374.857666 
	C459.758484,374.951080 470.816742,373.603485 481.684570,375.465271 
	C492.148834,377.257935 497.300903,383.163849 498.545441,393.085663 
	C499.671844,402.065704 495.740723,409.021820 486.917206,413.681915 
	C486.204254,414.058472 485.521881,414.492889 484.448883,415.120697 
	C489.140656,422.904846 495.699066,429.094025 500.664642,436.584991 
	C492.812988,439.659485 487.474091,438.418365 482.979218,432.833405 
	C479.846405,428.940918 476.738190,425.028168 473.655457,421.095917 
	C470.025970,416.466217 465.935547,415.245117 460.159546,416.800812 
	C457.917542,417.404663 457.276581,418.688599 457.304199,420.768005 
	C457.348419,424.099030 457.175232,427.436249 457.311951,430.761902 
	C457.482391,434.908081 457.504517,438.426971 451.563782,438.004425 
	C445.987640,437.607758 445.628235,437.542664 445.626587,430.985321 
	C445.623871,420.156860 445.622681,409.328400 445.621429,397.999939 
M473.301941,405.899963 
	C474.462555,405.867828 475.627960,405.892303 476.782928,405.794006 
	C482.524109,405.305298 486.651855,401.157227 486.645935,395.922363 
	C486.639557,390.280029 482.562805,386.470795 476.240692,386.233673 
	C474.749634,386.177734 473.255157,386.208221 471.762238,386.207611 
	C455.805847,386.200928 455.856903,386.196930 457.272766,402.305237 
	C457.493683,404.818481 458.464172,405.923309 460.908417,405.911163 
	C464.723541,405.892212 468.538849,405.907715 473.301941,405.899963 
z"/>
<path fill="#000000" opacity="1.000000" stroke="none" 
	d="
M320.372070,386.230560 
	C314.677124,386.022919 311.053375,382.601562 307.495605,379.471588 
	C305.508820,377.723663 305.174988,374.779999 309.099915,374.830505 
	C319.071198,374.958862 329.096680,373.753021 339.008270,375.746124 
	C353.864410,378.733490 364.289825,391.723572 364.100006,406.980743 
	C363.911041,422.169769 353.018188,434.821625 337.998840,437.321960 
	C328.717438,438.867096 319.374054,437.844116 310.060028,438.031921 
	C306.679749,438.100067 305.907532,435.998962 305.922791,433.125305 
	C305.976654,422.964966 305.438232,412.796509 306.449219,402.651062 
	C307.071381,396.407837 306.257629,390.142944 305.997162,383.737732 
	C315.402039,385.928162 318.138611,389.213104 318.115448,397.504486 
	C318.092651,405.670074 318.216278,413.837158 318.091431,422.000793 
	C318.040161,425.355194 319.140381,426.953308 322.701324,426.708801 
	C327.660553,426.368286 332.666473,427.220978 337.589722,425.727417 
	C347.199860,422.812042 352.732025,414.489502 351.609344,404.336395 
	C350.473389,394.062683 342.899109,386.713806 332.822662,386.279449 
	C328.830353,386.107361 324.824890,386.240631 320.372070,386.230560 
z"/>
<path fill="#000000" opacity="1.000000" stroke="none" 
	d="
M269.929199,424.269745 
	C264.111969,424.269562 258.776337,424.415802 253.453903,424.213684 
	C250.307358,424.094208 248.369308,425.166229 247.507019,428.214539 
	C247.237259,429.168243 246.747894,430.060455 246.351990,430.977753 
	C243.151001,438.394196 240.029083,439.680664 231.741364,436.796967 
	C231.972504,432.945282 234.026794,429.642303 235.516937,426.231689 
	C242.448212,410.367615 249.621170,394.609131 256.555725,378.746429 
	C257.789856,375.923340 259.356934,374.356842 262.527832,374.700653 
	C265.946747,375.071350 269.801361,373.450684 271.913452,378.187805 
	C280.451935,397.338196 289.228577,416.382385 297.899323,435.473938 
	C298.023315,435.746979 297.914795,436.125610 297.914795,436.470520 
	C291.784149,440.133118 285.310913,438.801025 283.569672,432.588867 
	C281.527527,425.303223 277.316315,423.067352 269.929199,424.269745 
M267.755585,396.730743 
	C266.738739,394.766907 266.395782,392.352570 263.648926,390.675751 
	C260.985291,398.203369 257.026062,404.807495 254.852188,412.585327 
	C261.549622,412.585327 267.661224,412.585327 274.649323,412.585327 
	C272.228943,407.026367 270.135345,402.217987 267.755585,396.730743 
z"/>
<path fill="#000000" opacity="1.000000" stroke="none" 
	d="
M588.538574,433.690918 
	C592.247742,432.945831 595.309204,431.704376 597.923584,429.516632 
	C599.276978,428.384125 600.592773,428.186005 601.865845,429.565521 
	C603.264587,431.081177 602.431824,432.172211 601.215942,433.343414 
	C595.452515,438.894989 583.538757,440.045837 575.893616,435.725250 
	C568.539368,431.569092 564.260193,421.448303 566.225586,412.858856 
	C568.555115,402.677917 575.359436,396.327454 584.519897,395.784821 
	C595.339966,395.143860 604.948120,404.130615 605.279724,415.024750 
	C605.375061,418.156616 604.487549,419.550507 601.079773,419.469940 
	C592.592651,419.269287 584.096375,419.473907 575.607483,419.317932 
	C571.332581,419.239380 570.627502,420.864929 572.429565,424.438843 
	C575.696472,430.917816 580.869080,434.066223 588.538574,433.690918 
M584.509399,415.095886 
	C589.396790,414.869415 594.360840,415.542236 599.170349,414.441498 
	C598.529175,406.362610 594.397949,401.725922 587.736023,401.070190 
	C580.140625,400.322601 574.061035,404.275879 571.888733,411.147461 
	C571.042053,413.825989 571.897095,414.968170 574.534241,415.023773 
	C577.528809,415.086945 580.524841,415.075653 584.509399,415.095886 
z"/>
<path fill="#000000" opacity="1.000000" stroke="none" 
	d="
M663.777100,404.999939 
	C663.761841,397.502289 663.738586,390.504608 663.740356,383.506958 
	C663.740906,381.480896 663.617249,379.136444 666.517517,379.174591 
	C669.416443,379.212708 669.209351,381.603424 669.220398,383.596069 
	C669.251404,389.211945 669.231262,394.828125 669.231262,401.461578 
	C674.190186,397.326630 678.953735,395.410187 684.513428,395.735992 
	C692.328613,396.193939 698.679138,401.680908 699.136841,409.487335 
	C699.613953,417.624176 699.309326,425.807159 699.334290,433.970001 
	C699.339783,435.769745 699.013306,437.473389 696.705566,437.363617 
	C694.007080,437.235260 694.315063,435.219360 694.351624,433.325714 
	C694.480164,426.665619 694.749817,419.997681 694.553162,413.344910 
	C694.365906,407.010406 691.223267,402.800446 686.393738,401.452332 
	C680.170166,399.715088 674.552307,401.746490 670.962036,406.854004 
	C669.526794,408.895813 669.205627,411.094421 669.215698,413.472076 
	C669.243286,419.969757 669.254517,426.468079 669.190613,432.965302 
	C669.173218,434.732574 669.447815,436.966980 666.793396,437.134369 
	C663.822937,437.321747 663.838867,435.005615 663.828064,432.990753 
	C663.778931,423.827332 663.789551,414.663605 663.777100,404.999939 
z"/>
<path fill="#000000" opacity="1.000000" stroke="none" 
	d="
M566.484253,383.160431 
	C567.104614,386.524780 564.989136,386.819397 562.924683,386.890289 
	C559.429565,387.010284 555.919373,387.106049 552.431519,386.916870 
	C548.543762,386.706024 547.178040,388.258728 547.233398,392.171356 
	C547.414978,404.998840 547.304871,417.830536 547.296692,430.660614 
	C547.295837,431.992279 547.266602,433.326477 547.179199,434.654816 
	C547.077515,436.199768 546.269836,437.117462 544.654114,437.147064 
	C543.038147,437.176666 542.158569,436.269257 542.016846,434.750763 
	C541.862427,433.096008 541.836060,431.425018 541.834106,429.761017 
	C541.820129,417.930695 541.827271,406.100342 541.826599,394.270020 
	C541.826233,386.988007 541.825317,386.993439 534.277100,386.930237 
	C531.445557,386.906525 528.611206,386.917786 525.784119,386.784424 
	C524.181702,386.708832 522.802490,386.144989 522.913330,384.113403 
	C523.006775,382.401520 524.153503,381.818268 525.616882,381.821136 
	C538.772095,381.846802 551.927368,381.902222 565.082275,381.995850 
	C565.489746,381.998749 565.893616,382.511108 566.484253,383.160431 
z"/>
<path fill="#000000" opacity="1.000000" stroke="none" 
	d="
M630.565857,432.641235 
	C636.657654,434.931580 641.728760,433.395447 646.405518,429.934631 
	C647.980164,428.769348 649.531311,427.533569 651.007629,429.794342 
	C652.237488,431.677673 650.761719,432.839539 649.446777,433.940552 
	C641.863159,440.290710 628.574585,439.743500 621.374084,432.776886 
	C613.542358,425.199524 613.016479,411.200500 620.240967,402.611359 
	C626.644592,394.998169 639.120300,393.478119 647.548523,399.319458 
	C648.497681,399.977295 649.368042,400.780670 650.161743,401.623199 
	C651.208374,402.734192 651.362305,403.958221 650.227234,405.162506 
	C649.054504,406.406860 647.905823,406.151154 646.734314,405.149170 
	C643.874573,402.703369 640.718750,401.111938 636.809814,401.026764 
	C629.058228,400.857849 623.448364,404.626373 621.282837,411.705414 
	C618.883972,419.547516 621.300415,427.091797 627.540588,431.131195 
	C628.375305,431.671478 629.311707,432.054474 630.565857,432.641235 
z"/>
<path fill="#000000" opacity="1.000000" stroke="none" 
	d="
M518.943604,290.704590 
	C517.903748,292.688141 516.611145,293.844574 515.093628,291.925385 
	C514.178467,290.767914 514.942017,289.223511 516.129089,288.528168 
	C517.947449,287.463074 518.860840,288.444244 518.943604,290.704590 
z"/>
</svg>